<svg width="16" height="20" viewBox="0 0 16 20" fill="none" xmlns="http://www.w3.org/2000/svg">
<g clip-path="url(#clip0_4836_2855)">
<g clip-path="url(#clip1_4836_2855)">
<path fill-rule="evenodd" clip-rule="evenodd" d="M7.21642 0.861409C11.6617 0.490677 15.4064 3.83528 15.5 8.14774L15.5002 8.16584C15.5002 9.67325 15.0281 11.0821 14.1911 12.2919L14.1828 12.3037L9.95312 18.1967C9.94473 18.2084 9.93603 18.2199 9.92705 18.2311C8.95481 19.4474 7.04268 19.5222 6.10846 18.1931L1.87738 12.2982C0.774465 10.7345 0.194899 8.76029 0.66359 6.671C1.24151 3.5382 3.97309 1.23197 7.19099 0.863924C7.19945 0.862955 7.20793 0.862117 7.21642 0.861409ZM7.36769 2.52126C4.79214 2.82106 2.72386 4.65455 2.30014 6.9868C2.29797 6.99871 2.29555 7.01058 2.29287 7.02239C1.93973 8.5774 2.35434 10.0814 3.23743 11.3348L7.47099 17.2331C7.69659 17.5557 8.25927 17.6312 8.61366 17.2046L12.8245 11.338C13.4761 10.3937 13.8317 9.31777 13.8336 8.17488C13.7564 4.85966 10.8752 2.23567 7.36769 2.52126Z" fill="white"/>
<path fill-rule="evenodd" clip-rule="evenodd" d="M7.70071 7.66795C6.97405 7.66795 6.38498 8.37683 6.38498 9.25128C6.38498 10.1257 6.97405 10.8346 7.70071 10.8346C8.42736 10.8346 9.01644 10.1257 9.01644 9.25128C9.01644 8.37683 8.42736 7.66795 7.70071 7.66795ZM5 9.25128C5 7.45636 6.20915 6.00128 7.70071 6.00128C9.19227 6.00128 10.4014 7.45636 10.4014 9.25128C10.4014 11.0462 9.19227 12.5013 7.70071 12.5013C6.20915 12.5013 5 11.0462 5 9.25128Z" fill="white"/>
</g>
</g>
<defs>
<clipPath id="clip0_4836_2855">
<rect width="15.0002" height="18.3334" fill="white" transform="translate(0.5 0.833313)"/>
</clipPath>
<clipPath id="clip1_4836_2855">
<rect width="15.0002" height="18.3334" fill="white" transform="translate(0.5 0.833313)"/>
</clipPath>
</defs>
</svg>
